#!OML:ASF I:\Actors\actors\Patient Classification 2\Patient 1\Session 1\actor1.ASF
:FULLY-SPECIFIED
:DEGREES
427
root -0.326338 18.7975 5.33678 5.22239 -13.4184 -1.51349
lowerback 33.826 -4.86111 -4.52835
upperback 7.30158 -8.62572 -7.1884
thorax -9.61968 -3.94471 -1.93801
lowerneck -20.2312 11.1285 11.0201
upperneck 26.4328 13.8531 -5.9495
head 13.5192 6.33252 -1.60673
rclavicle 4.77083e-014 2.22639e-014
rhumerus -89.4372 29.4189 -86.338
rradius 126.693
rwrist -83.5752
rhand -33.4803 -61.868
rfingers 7.12502
rthumb -6.67793 451.743
lclavicle 4.77083e-014 2.22639e-014
lhumerus -32.7385 -20.0342 100.534
lradius 107.556
lwrist 106.744
lhand -40.2407 -35.9717
lfingers 7.12502
lthumb -13.1998 -6.40954
rfemur 0 0 0
rtibia 0
rfoot 0 0
rtoes 0
lfemur -8.25911 5.05111 -13.8154
ltibia 23.3795
lfoot -22.2424 14.3963
ltoes -54.5695
428
root -0.309956 18.8085 5.2557 5.75125 -12.9226 -1.78979
lowerback 35.1449 -4.56754 -4.86032
upperback 7.48994 -8.46282 -7.3668
thorax -9.88911 -3.83565 -1.95185
lowerneck -20.6892 10.8632 10.8096
upperneck 25.8819 13.3069 -5.48435
head 13.2689 6.13744 -1.49142
rclavicle -3.97569e-014 3.18055e-015
rhumerus -88.6729 28.9717 -87.1451
rradius 126.963
rwrist -83.7561
rhand -33.4877 -61.3232
rfingers 7.12502
rthumb -6.68504 451.198
lclavicle -3.97569e-014 3.18055e-015
lhumerus -31.2244 -19.0835 99.206
lradius 107.833
lwrist 106.657
lhand -40.7023 -34.8242
lfingers 7.12502
lthumb -13.6447 -5.29144
rfemur 0 0 0
rtibia 0
rfoot 0 0
rtoes 0
lfemur -9.49635 5.22684 -13.5283
ltibia 23.9374
lfoot -21.845 14.0155
ltoes -54.7326
429
root -0.293026 18.8194 5.17058 6.35394 -12.4244 -1.92724
lowerback 36.5128 -4.16338 -5.38612
upperback 7.6001 -8.23746 -7.43812
thorax -10.0829 -3.69398 -1.84604
lowerneck -21.0012 10.5518 10.4893
upperneck 25.0365 12.7486 -5.04879
head 12.8702 5.93066 -1.38375
rclavicle 3.97569e-014 3.18055e-015
rhumerus -87.603 28.4906 -87.9579
rradius 127.315
rwrist -82.4565
rhand -32.1902 -63.1069
rfingers 7.12502
rthumb -5.4324 453.017
lclavicle 3.97569e-014 3.18055e-015
lhumerus -29.4857 -18.0944 97.8635
lradius 107.918
lwrist 106.369
lhand -39.8316 -34.6041
lfingers 7.12502
lthumb -12.8054 -5.01686
rfemur 0 0 0
rtibia 0
rfoot 0 0
rtoes 0
lfemur -10.8665 5.35862 -13.4143
ltibia 24.4923
lfoot -21.4723 13.642
ltoes -54.7263
430
root -0.274874 18.831 5.08294 7.05261 -11.9505 -1.98568
lowerback 37.7164 -3.69608 -5.95417
upperback 7.8329 -7.94185 -7.5095
thorax -10.1772 -3.52568 -1.7099
lowerneck -21.3514 10.22 10.1555
upperneck 24.0469 12.1903 -4.69134
head 12.4394 5.71136 -1.30407
rclavicle 9.54166e-015 6.36111e-015
rhumerus -85.4291 28.0088 -88.8068
rradius 126.843
rwrist -82.4131
rhand -31.1167 -64.5094
rfingers 7.12502
rthumb -4.39582 454.444
lclavicle 9.54166e-015 6.36111e-015
lhumerus -27.5403 -17.0102 96.5014
lradius 107.64
lwrist 105.873
lhand -49.0534 -28.9958
lfingers 7.12502
lthumb -21.6803 -0.18972
rfemur 0 0 0
rtibia 0
rfoot 0 0
rtoes 0
lfemur -12.3995 5.50638 -13.4208
ltibia 25.0711
lfoot -21.0672 13.3104
ltoes -54.66
431
root -0.255033 18.8428 4.99123 7.87268 -11.4708 -2.0139
lowerback 38.9067 -3.19602 -6.47063
upperback 8.07266 -7.59712 -7.56069
thorax -10.2499 -3.33764 -1.60994
lowerneck -21.8601 9.84463 9.851
upperneck 23.0283 11.5665 -4.37116
head 12.0401 5.4555 -1.24926
rclavicle 1.01778e-013 5.725e-014
rhumerus -82.79 27.3645 -89.2749
rradius 127.239
rwrist -81.7241
rhand -30.6666 -65.6551
rfingers 7.12502
rthumb -3.96116 455.598
lclavicle 1.01778e-013 5.725e-014
lhumerus -24.7371 -16.047 94.9233
lradius 106.88
lwrist 105.463
lhand -53.9182 -19.1143
lfingers 7.12502
lthumb -26.3451 9.07577
rfemur 0 0 0
rtibia 0
rfoot 0 0
rtoes 0
lfemur -14.1329 5.79963 -13.4968
ltibia 25.6823
lfoot -20.5537 12.9177
ltoes -54.6054
432
root -0.234425 18.8521 4.89763 8.84912 -10.9392 -2.15565
lowerback 40.0521 -2.68046 -6.86225
upperback 8.29647 -7.1747 -7.46635
thorax -10.3063 -3.11933 -1.46114
lowerneck -22.469 9.40917 9.39604
upperneck 21.967 10.8998 -4.00574
head 11.6381 5.16986 -1.15992
rclavicle 2.54444e-014 -1.59028e-014
rhumerus -79.1065 26.8003 -89.683
rradius 126.964
rwrist -81.5143
rhand -30.1292 -62.1661
rfingers 7.12502
rthumb -3.44226 452.118
lclavicle 2.54444e-014 -1.59028e-014
lhumerus -21.4585 -14.6509 93.3688
lradius 105.183
lwrist 104.783
lhand -49.4406 3.60672
lfingers 7.12502
lthumb -22.0521 32.3694
rfemur 0 0 0
rtibia 0
rfoot 0 0
rtoes 0
lfemur -16.049 6.1766 -13.4757
ltibia 26.309
lfoot -19.9993 12.4112
ltoes -54.5569
433
root -0.213104 18.8579 4.80973 9.89498 -10.4074 -2.34341
lowerback 41.0964 -2.12985 -7.17611
upperback 8.54345 -6.6646 -7.28505
thorax -10.2907 -2.86988 -1.30825
lowerneck -23.1802 8.92627 8.85044
upperneck 20.9683 10.2138 -3.66395
head 11.2855 4.86101 -1.0647
rclavicle -9.54166e-015 2.70347e-014
rhumerus -74.3705 26.2179 -89.9991
rradius 126
rwrist -81.158
rhand -31.7137 -62.5869
rfingers 7.12502
rthumb -4.97227 452.509
lclavicle -9.54166e-015 2.70347e-014
lhumerus -17.2872 -13.0674 91.9497
lradius 102.291
lwrist 103.707
lhand -46.3187 24.7514
lfingers 7.12502
lthumb -19.0522 53.8383
rfemur 0 0 0
rtibia 0
rfoot 0 0
rtoes 0
lfemur -18.0032 6.49078 -13.4277
ltibia 26.9211
lfoot -19.4859 11.9537
ltoes -54.5289
434
root -0.190958 18.8607 4.72907 10.947 -9.92487 -2.43364
lowerback 42.0605 -1.5515 -7.5327
upperback 8.78129 -6.14651 -7.13323
thorax -10.2536 -2.61975 -1.17864
lowerneck -23.8063 8.3854 8.32473
upperneck 19.9199 9.46641 -3.33515
head 10.9083 4.52503 -0.991694
rclavicle 1.90833e-014 -2.38542e-014
rhumerus -68.4398 25.9134 -90.4769
rradius 123.968
rwrist -80.3472
rhand -35.2266 -67.445
rfingers 7.12502
rthumb -8.36347 457.259
lclavicle 1.90833e-014 -2.38542e-014
lhumerus -12.2792 -10.9483 90.6844
lradius 97.1949
lwrist 101.62
lhand -39.3899 46.0692
lfingers 7.12502
lthumb -12.3796 75.6827
rfemur 0 0 0
rtibia 0
rfoot 0 0
rtoes 0
lfemur -19.9144 6.59757 -13.4868
ltibia 27.485
lfoot -19.0569 11.669
ltoes -54.5152
435
root -0.174892 18.862 4.64807 11.9219 -9.55042 -2.52634
lowerback 43.2153 -0.851948 -8.04826
upperback 8.85639 -5.5931 -6.91561
thorax -10.4282 -2.34196 -0.915594
lowerneck -24.1817 7.75811 7.76061
upperneck 18.8876 8.62407 -2.89615
head 10.4921 4.15838 -0.896289
rclavicle 6.36111e-015 2.38542e-014
rhumerus -61.5401 26.2659 -91.1735
rradius 120.311
rwrist -78.5337
rhand -34.4175 -64.3944
rfingers 7.12502
rthumb -7.5826 454.238
lclavicle 6.36111e-015 2.38542e-014
lhumerus -6.86641 -7.91876 89.9575
lradius 89.6462
lwrist 98.5053
lhand -38.2638 28.4161
lfingers 7.12502
lthumb -11.2937 58.092
rfemur 0 0 0
rtibia 0
rfoot 0 0
rtoes 0
lfemur -21.6625 6.7525 -13.5148
ltibia 27.9811
lfoot -18.6371 11.342
ltoes -54.5949
436
root -0.172477 18.8626 4.55644 12.6626 -9.39889 -2.6581
lowerback 44.7817 0.167229 -9.00219
upperback 8.72826 -4.9156 -6.50096
thorax -10.8806 -1.98914 -0.285193
lowerneck -24.5365 7.10517 7.02212
upperneck 18.2348 7.76142 -2.15518
head 10.2023 3.80311 -0.663553
rclavicle -1.90833e-014 5.56597e-014
rhumerus -53.6827 27.4249 -91.5676
rradius 114.981
rwrist -76.9046
rhand -33.7088 -62.8909
rfingers 7.12502
rthumb -6.89844 452.759
lclavicle -1.90833e-014 5.56597e-014
lhumerus -0.417191 -4.33287 90.3044
lradius 80.0483
lwrist 95.1916
lhand -34.66 0.697532
lfingers 7.12502
lthumb -7.81657 30.533
rfemur 0 0 0
rtibia 0
rfoot 0 0
rtoes 0
lfemur -23.099 7.37173 -13.5027
ltibia 28.4215
lfoot -18.113 10.8032
ltoes -54.7578
437
root -0.151504 18.8621 4.49653 13.7037 -8.94492 -2.67153
lowerback 45.533 0.837893 -9.72567
upperback 8.70872 -4.45077 -6.02748
thorax -10.996 -1.75937 0.371652
lowerneck -25.0803 6.5214 6.19122
upperneck 17.8918 7.0278 -1.39218
head 10.0735 3.49947 -0.376511
rclavicle -9.54166e-015 -4.29375e-014
rhumerus -44.5559 30.2327 -90.6784
rradius 107.703
rwrist -77.8565
rhand -33.4527 -62.5841
rfingers 7.12502
rthumb -6.65128 452.46
lclavicle -9.54166e-015 -4.29375e-014
lhumerus 7.43793 0.413902 92.2402
lradius 68.6274
lwrist 91.5421
lhand -32.2379 -9.18512
lfingers 7.12502
lthumb -5.47847 20.7241
rfemur 0 0 0
rtibia 0
rfoot 0 0
rtoes 0
lfemur -24.8648 7.44274 -13.6694
ltibia 28.8263
lfoot -17.68 10.5679
ltoes -54.8786
438
root -0.124124 18.8573 4.44389 14.7465 -8.38053 -2.69084
lowerback 46.2396 1.37963 -10.4047
upperback 8.70085 -4.10457 -5.4365
thorax -11.0829 -1.58815 1.18298
lowerneck -25.749 5.99745 5.40941
upperneck 17.4453 6.43908 -0.947918
head 9.95911 3.22631 -0.183883
rclavicle -3.18055e-015 1.27222e-014
rhumerus -34.5295 33.1169 -88.5888
rradius 99.6739
rwrist -80.6785
rhand -33.6948 -63.0899
rfingers 7.12502
rthumb -6.88492 452.958
lclavicle -3.18055e-015 1.27222e-014
lhumerus 15.7351 5.69937 95.8705
lradius 57.276
lwrist 89.0564
lhand -40.4771 -13.6371
lfingers 7.12502
lthumb -13.4277 15.9102
rfemur 0 0 0
rtibia 0
rfoot 0 0
rtoes 0
lfemur -26.6334 7.21348 -13.7919
ltibia 29.2443
lfoot -17.3506 10.4629
ltoes -54.9405
439
root -0.111248 18.8483 4.37841 15.6102 -8.01252 -2.77392
lowerback 48.0307 2.00729 -11.0217
upperback 7.82227 -3.88385 -4.88757
thorax -11.0466 -1.45345 1.48734
lowerneck -26.5587 5.48287 4.87156
upperneck 16.6039 5.75925 -0.432227
head 9.73756 2.93761 -0.0214054
rclavicle 2.54444e-014 1.43125e-014
rhumerus -24.3255 34.988 -86.2048
rradius 91.9357
rwrist -85.3319
rhand -33.3456 -66.4957
rfingers 7.12502
rthumb -6.54782 456.374
lclavicle 2.54444e-014 1.43125e-014
lhumerus 24.4734 12.5676 101.878
lradius 47.0334
lwrist 83.4087
lhand -41.5259 -15.0211
lfingers 7.12502
lthumb -14.4384 14.4566
rfemur 0 0 0
rtibia 0
rfoot 0 0
rtoes 0
lfemur -28.1674 7.17347 -13.7861
ltibia 29.6795
lfoot -17.1437 10.259
ltoes -54.96
440
root -0.119222 18.8366 4.28972 16.4235 -8.02758 -3.28097
lowerback 49.4756 2.84004 -11.3811
upperback 7.68437 -3.24103 -4.47491
thorax -11.3992 -1.14836 1.7651
lowerneck -27.5355 4.87586 4.20694
upperneck 15.5883 5.06405 -0.16004
head 9.49127 2.60251 0.0728869
rclavicle -3.18055e-015 2.22639e-014
rhumerus -18.1025 35.2881 -84.7904
rradius 88.5302
rwrist -88.1227
rhand -33.9871 -67.1081
rfingers 7.12502
rthumb -7.16712 456.967
lclavicle -3.18055e-015 2.22639e-014
lhumerus 26.8626 12.9075 102.575
lradius 45.6551
lwrist 79.4215
lhand -39.0418 -13.8416
lfingers 7.12502
lthumb -12.0439 15.7919
rfemur 0 0 0
rtibia 0
rfoot 0 0
rtoes 0
lfemur -29.5095 7.68346 -13.3251
ltibia 30.0612
lfoot -16.9057 9.98032
ltoes -55.0657
441
root -0.0953465 18.8245 4.25112 17.7469 -7.55593 -3.60829
lowerback 49.8424 2.85642 -10.7005
upperback 7.76443 -2.8935 -4.33941
thorax -11.4393 -1.00889 1.44888
lowerneck -28.2707 4.16905 3.41759
upperneck 14.394 4.34971 -0.0636271
head 9.14971 2.23065 0.1146
rclavicle 9.22361e-014 4.6118e-014
rhumerus -15.1426 35.6455 -84.1794
rradius 88.4731
rwrist -84.6855
rhand -34.1323 -65.5505
rfingers 7.12502
rthumb -7.30727 455.404
lclavicle 9.22361e-014 4.6118e-014
lhumerus 27.2975 10.9912 101.483
lradius 47.4939
lwrist 80.2004
lhand -34.759 -10.5259
lfingers 7.12502
lthumb -7.91218 19.306
rfemur 0 0 0
rtibia 0
rfoot 0 0
rtoes 0
lfemur -31.3416 7.1341 -12.9847
ltibia 30.3442
lfoot -16.8412 10.2765
ltoes -55.0131
442
root -0.0871376 18.8184 4.22361 18.8219 -7.21166 -3.34807
lowerback 50.2917 3.05324 -10.575
upperback 7.6833 -2.64778 -4.27336
thorax -11.6166 -0.888449 1.33971
lowerneck -28.3079 3.44874 2.73989
upperneck 13.071 3.61306 0.0335507
head 8.66408 1.85762 0.125759
rclavicle -8.90555e-014 -5.80451e-014
rhumerus -13.1544 36.0268 -83.8923
rradius 88.9135
rwrist -80.5706
rhand -33.0787 -63.5943
rfingers 7.12502
rthumb -6.2902 453.481
lclavicle -8.90555e-014 -5.80451e-014
lhumerus 27.3577 7.75679 98.759
lradius 49.0275
lwrist 81.8171
lhand -30.5116 -8.23905
lfingers 7.12502
lthumb -3.81146 21.7066
rfemur 0 0 0
rtibia 0
rfoot 0 0
rtoes 0
lfemur -32.8688 6.93093 -13.3414
ltibia 30.5205
lfoot -16.6342 10.1698
ltoes -54.8901
